<mxfile host="app.diagrams.net" agent="Mozilla/5.0 (Macintosh; Intel Mac OS X 10.15; rv:141.0) Gecko/20100101 Firefox/141.0" version="28.0.7">
  <diagram name="Page-1" id="9SgxrqkOXuF_qN1MYwyA">
    <mxGraphModel dx="1845" dy="692" grid="1" gridSize="10" guides="1" tooltips="1" connect="1" arrows="1" fold="1" page="1" pageScale="1" pageWidth="827" pageHeight="1169" math="0" shadow="0">
      <root>
        <mxCell id="0" />
        <mxCell id="1" parent="0" />
        <mxCell id="5Gq7Up3fAkrMCuEhvLr--2" value="AWS Cloud" style="points=[[0,0],[0.25,0],[0.5,0],[0.75,0],[1,0],[1,0.25],[1,0.5],[1,0.75],[1,1],[0.75,1],[0.5,1],[0.25,1],[0,1],[0,0.75],[0,0.5],[0,0.25]];outlineConnect=0;gradientColor=none;html=1;whiteSpace=wrap;fontSize=12;fontStyle=0;container=1;pointerEvents=0;collapsible=0;recursiveResize=0;shape=mxgraph.aws4.group;grIcon=mxgraph.aws4.group_aws_cloud;strokeColor=#232F3E;fillColor=none;verticalAlign=top;align=left;spacingLeft=30;fontColor=#232F3E;dashed=0;" vertex="1" parent="1">
          <mxGeometry x="40" y="40" width="620" height="470" as="geometry" />
        </mxCell>
        <mxCell id="5Gq7Up3fAkrMCuEhvLr--3" value="VPC" style="points=[[0,0],[0.25,0],[0.5,0],[0.75,0],[1,0],[1,0.25],[1,0.5],[1,0.75],[1,1],[0.75,1],[0.5,1],[0.25,1],[0,1],[0,0.75],[0,0.5],[0,0.25]];outlineConnect=0;gradientColor=none;html=1;whiteSpace=wrap;fontSize=12;fontStyle=0;container=1;pointerEvents=0;collapsible=0;recursiveResize=0;shape=mxgraph.aws4.group;grIcon=mxgraph.aws4.group_vpc2;strokeColor=#8C4FFF;fillColor=none;verticalAlign=top;align=left;spacingLeft=30;fontColor=#AAB7B8;dashed=0;" vertex="1" parent="5Gq7Up3fAkrMCuEhvLr--2">
          <mxGeometry x="20" y="40" width="580" height="410" as="geometry" />
        </mxCell>
        <mxCell id="5Gq7Up3fAkrMCuEhvLr--4" value="Public subnet" style="points=[[0,0],[0.25,0],[0.5,0],[0.75,0],[1,0],[1,0.25],[1,0.5],[1,0.75],[1,1],[0.75,1],[0.5,1],[0.25,1],[0,1],[0,0.75],[0,0.5],[0,0.25]];outlineConnect=0;gradientColor=none;html=1;whiteSpace=wrap;fontSize=12;fontStyle=0;container=1;pointerEvents=0;collapsible=0;recursiveResize=0;shape=mxgraph.aws4.group;grIcon=mxgraph.aws4.group_security_group;grStroke=0;strokeColor=#7AA116;fillColor=#F2F6E8;verticalAlign=top;align=left;spacingLeft=30;fontColor=#248814;dashed=0;" vertex="1" parent="5Gq7Up3fAkrMCuEhvLr--3">
          <mxGeometry x="20" y="40" width="130" height="350" as="geometry" />
        </mxCell>
        <mxCell id="5Gq7Up3fAkrMCuEhvLr--6" value="&lt;div&gt;Application&lt;/div&gt;&lt;div&gt;Loadbalancer&lt;/div&gt;" style="sketch=0;points=[[0,0,0],[0.25,0,0],[0.5,0,0],[0.75,0,0],[1,0,0],[0,1,0],[0.25,1,0],[0.5,1,0],[0.75,1,0],[1,1,0],[0,0.25,0],[0,0.5,0],[0,0.75,0],[1,0.25,0],[1,0.5,0],[1,0.75,0]];outlineConnect=0;fontColor=#232F3E;fillColor=#8C4FFF;strokeColor=#ffffff;dashed=0;verticalLabelPosition=bottom;verticalAlign=top;align=center;html=1;fontSize=12;fontStyle=0;aspect=fixed;shape=mxgraph.aws4.resourceIcon;resIcon=mxgraph.aws4.elastic_load_balancing;" vertex="1" parent="5Gq7Up3fAkrMCuEhvLr--4">
          <mxGeometry x="36" y="136" width="58" height="58" as="geometry" />
        </mxCell>
        <mxCell id="5Gq7Up3fAkrMCuEhvLr--5" value="Private subnet" style="points=[[0,0],[0.25,0],[0.5,0],[0.75,0],[1,0],[1,0.25],[1,0.5],[1,0.75],[1,1],[0.75,1],[0.5,1],[0.25,1],[0,1],[0,0.75],[0,0.5],[0,0.25]];outlineConnect=0;gradientColor=none;html=1;whiteSpace=wrap;fontSize=12;fontStyle=0;container=1;pointerEvents=0;collapsible=0;recursiveResize=0;shape=mxgraph.aws4.group;grIcon=mxgraph.aws4.group_security_group;grStroke=0;strokeColor=#00A4A6;fillColor=#E6F6F7;verticalAlign=top;align=left;spacingLeft=30;fontColor=#147EBA;dashed=0;" vertex="1" parent="5Gq7Up3fAkrMCuEhvLr--3">
          <mxGeometry x="170" y="40" width="380" height="350" as="geometry" />
        </mxCell>
        <mxCell id="5Gq7Up3fAkrMCuEhvLr--7" value="ECS Cluster" style="points=[[0,0],[0.25,0],[0.5,0],[0.75,0],[1,0],[1,0.25],[1,0.5],[1,0.75],[1,1],[0.75,1],[0.5,1],[0.25,1],[0,1],[0,0.75],[0,0.5],[0,0.25]];outlineConnect=0;gradientColor=none;html=1;whiteSpace=wrap;fontSize=12;fontStyle=0;container=1;pointerEvents=0;collapsible=0;recursiveResize=0;shape=mxgraph.aws4.group;grIcon=mxgraph.aws4.group_ec2_instance_contents;strokeColor=#D86613;fillColor=none;verticalAlign=top;align=left;spacingLeft=30;fontColor=#D86613;dashed=0;" vertex="1" parent="5Gq7Up3fAkrMCuEhvLr--5">
          <mxGeometry x="40" y="-70" width="200" height="400" as="geometry" />
        </mxCell>
        <mxCell id="5Gq7Up3fAkrMCuEhvLr--8" value="" style="sketch=0;points=[[0,0,0],[0.25,0,0],[0.5,0,0],[0.75,0,0],[1,0,0],[0,1,0],[0.25,1,0],[0.5,1,0],[0.75,1,0],[1,1,0],[0,0.25,0],[0,0.5,0],[0,0.75,0],[1,0.25,0],[1,0.5,0],[1,0.75,0]];outlineConnect=0;fontColor=#232F3E;fillColor=#ED7100;strokeColor=#ffffff;dashed=0;verticalLabelPosition=bottom;verticalAlign=top;align=center;html=1;fontSize=12;fontStyle=0;aspect=fixed;shape=mxgraph.aws4.resourceIcon;resIcon=mxgraph.aws4.fargate;" vertex="1" parent="5Gq7Up3fAkrMCuEhvLr--7">
          <mxGeometry width="26" height="26" as="geometry" />
        </mxCell>
        <mxCell id="5Gq7Up3fAkrMCuEhvLr--10" value="ECS Service A" style="fillColor=none;strokeColor=#5A6C86;dashed=1;verticalAlign=top;fontStyle=0;fontColor=#5A6C86;whiteSpace=wrap;html=1;" vertex="1" parent="5Gq7Up3fAkrMCuEhvLr--7">
          <mxGeometry x="70" y="120" width="90" height="100" as="geometry" />
        </mxCell>
        <mxCell id="5Gq7Up3fAkrMCuEhvLr--11" value="Container" style="sketch=0;outlineConnect=0;fontColor=#232F3E;gradientColor=none;fillColor=#ED7100;strokeColor=none;dashed=0;verticalLabelPosition=bottom;verticalAlign=top;align=center;html=1;fontSize=12;fontStyle=0;aspect=fixed;pointerEvents=1;shape=mxgraph.aws4.container_1;" vertex="1" parent="5Gq7Up3fAkrMCuEhvLr--7">
          <mxGeometry x="91" y="162.5" width="48" height="31" as="geometry" />
        </mxCell>
        <mxCell id="5Gq7Up3fAkrMCuEhvLr--19" value="ECS Service A" style="fillColor=none;strokeColor=#5A6C86;dashed=1;verticalAlign=top;fontStyle=0;fontColor=#5A6C86;whiteSpace=wrap;html=1;" vertex="1" parent="5Gq7Up3fAkrMCuEhvLr--7">
          <mxGeometry x="70" y="270" width="90" height="100" as="geometry" />
        </mxCell>
        <mxCell id="5Gq7Up3fAkrMCuEhvLr--20" value="Container" style="sketch=0;outlineConnect=0;fontColor=#232F3E;gradientColor=none;fillColor=#ED7100;strokeColor=none;dashed=0;verticalLabelPosition=bottom;verticalAlign=top;align=center;html=1;fontSize=12;fontStyle=0;aspect=fixed;pointerEvents=1;shape=mxgraph.aws4.container_1;" vertex="1" parent="5Gq7Up3fAkrMCuEhvLr--7">
          <mxGeometry x="91" y="312.5" width="48" height="31" as="geometry" />
        </mxCell>
        <mxCell id="5Gq7Up3fAkrMCuEhvLr--22" value="Security group A" style="fillColor=none;strokeColor=#DD3522;verticalAlign=top;fontStyle=0;fontColor=#DD3522;whiteSpace=wrap;html=1;" vertex="1" parent="5Gq7Up3fAkrMCuEhvLr--7">
          <mxGeometry x="65" y="90" width="100" height="140" as="geometry" />
        </mxCell>
        <mxCell id="5Gq7Up3fAkrMCuEhvLr--23" value="Security group B" style="fillColor=none;strokeColor=#DD3522;verticalAlign=top;fontStyle=0;fontColor=#DD3522;whiteSpace=wrap;html=1;" vertex="1" parent="5Gq7Up3fAkrMCuEhvLr--7">
          <mxGeometry x="65" y="240" width="100" height="140" as="geometry" />
        </mxCell>
        <mxCell id="5Gq7Up3fAkrMCuEhvLr--21" value="Security group C" style="fillColor=none;strokeColor=#DD3522;verticalAlign=top;fontStyle=0;fontColor=#DD3522;whiteSpace=wrap;html=1;" vertex="1" parent="5Gq7Up3fAkrMCuEhvLr--5">
          <mxGeometry x="270" y="90" width="100" height="130" as="geometry" />
        </mxCell>
        <mxCell id="5Gq7Up3fAkrMCuEhvLr--18" value="RDS" style="sketch=0;points=[[0,0,0],[0.25,0,0],[0.5,0,0],[0.75,0,0],[1,0,0],[0,1,0],[0.25,1,0],[0.5,1,0],[0.75,1,0],[1,1,0],[0,0.25,0],[0,0.5,0],[0,0.75,0],[1,0.25,0],[1,0.5,0],[1,0.75,0]];outlineConnect=0;fontColor=#232F3E;fillColor=#C925D1;strokeColor=#ffffff;dashed=0;verticalLabelPosition=bottom;verticalAlign=top;align=center;html=1;fontSize=12;fontStyle=0;aspect=fixed;shape=mxgraph.aws4.resourceIcon;resIcon=mxgraph.aws4.database;" vertex="1" parent="5Gq7Up3fAkrMCuEhvLr--5">
          <mxGeometry x="281" y="116" width="78" height="78" as="geometry" />
        </mxCell>
        <mxCell id="5Gq7Up3fAkrMCuEhvLr--24" value="" style="edgeStyle=orthogonalEdgeStyle;html=1;endArrow=open;elbow=vertical;startArrow=none;endFill=0;strokeColor=#545B64;rounded=0;entryX=0;entryY=0.25;entryDx=0;entryDy=0;exitX=1;exitY=0.5;exitDx=0;exitDy=0;" edge="1" parent="5Gq7Up3fAkrMCuEhvLr--5" source="5Gq7Up3fAkrMCuEhvLr--22" target="5Gq7Up3fAkrMCuEhvLr--21">
          <mxGeometry width="100" relative="1" as="geometry">
            <mxPoint x="-210" y="150" as="sourcePoint" />
            <mxPoint x="-94" y="150" as="targetPoint" />
            <Array as="points">
              <mxPoint x="230" y="90" />
              <mxPoint x="230" y="123" />
            </Array>
          </mxGeometry>
        </mxCell>
        <mxCell id="5Gq7Up3fAkrMCuEhvLr--16" value="" style="edgeStyle=orthogonalEdgeStyle;html=1;endArrow=open;elbow=vertical;startArrow=none;endFill=0;strokeColor=#545B64;rounded=0;entryX=0;entryY=0.5;entryDx=0;entryDy=0;exitX=1;exitY=0.25;exitDx=0;exitDy=0;exitPerimeter=0;" edge="1" parent="5Gq7Up3fAkrMCuEhvLr--3" source="5Gq7Up3fAkrMCuEhvLr--6" target="5Gq7Up3fAkrMCuEhvLr--22">
          <mxGeometry width="100" relative="1" as="geometry">
            <mxPoint x="-50" y="-30" as="sourcePoint" />
            <mxPoint x="-50" y="110" as="targetPoint" />
          </mxGeometry>
        </mxCell>
        <mxCell id="5Gq7Up3fAkrMCuEhvLr--25" value="" style="edgeStyle=orthogonalEdgeStyle;html=1;endArrow=open;elbow=vertical;startArrow=none;endFill=0;strokeColor=#545B64;rounded=0;exitX=1;exitY=0.75;exitDx=0;exitDy=0;exitPerimeter=0;entryX=0;entryY=0.5;entryDx=0;entryDy=0;" edge="1" parent="5Gq7Up3fAkrMCuEhvLr--3" source="5Gq7Up3fAkrMCuEhvLr--6" target="5Gq7Up3fAkrMCuEhvLr--19">
          <mxGeometry width="100" relative="1" as="geometry">
            <mxPoint x="170" y="239" as="sourcePoint" />
            <mxPoint x="30" y="510" as="targetPoint" />
          </mxGeometry>
        </mxCell>
        <mxCell id="5Gq7Up3fAkrMCuEhvLr--14" value="Users" style="sketch=0;outlineConnect=0;fontColor=#232F3E;gradientColor=none;fillColor=#232F3D;strokeColor=none;dashed=0;verticalLabelPosition=bottom;verticalAlign=top;align=center;html=1;fontSize=12;fontStyle=0;aspect=fixed;pointerEvents=1;shape=mxgraph.aws4.users;" vertex="1" parent="1">
          <mxGeometry x="-78" y="246" width="78" height="78" as="geometry" />
        </mxCell>
        <mxCell id="5Gq7Up3fAkrMCuEhvLr--15" value="" style="edgeStyle=orthogonalEdgeStyle;html=1;endArrow=open;elbow=vertical;startArrow=none;endFill=0;strokeColor=#545B64;rounded=0;entryX=0;entryY=0.5;entryDx=0;entryDy=0;entryPerimeter=0;" edge="1" parent="1" source="5Gq7Up3fAkrMCuEhvLr--14" target="5Gq7Up3fAkrMCuEhvLr--6">
          <mxGeometry width="100" relative="1" as="geometry">
            <mxPoint x="110" y="-40" as="sourcePoint" />
            <mxPoint x="210" y="-40" as="targetPoint" />
          </mxGeometry>
        </mxCell>
        <mxCell id="5Gq7Up3fAkrMCuEhvLr--26" value="Ingress rule for Security group A only" style="shape=note;whiteSpace=wrap;html=1;backgroundOutline=1;darkOpacity=0.05;size=19;" vertex="1" parent="1">
          <mxGeometry x="670" y="90" width="80" height="100" as="geometry" />
        </mxCell>
        <mxCell id="5Gq7Up3fAkrMCuEhvLr--27" value="" style="endArrow=none;html=1;rounded=0;exitX=1;exitY=0;exitDx=0;exitDy=0;entryX=0;entryY=1;entryDx=0;entryDy=0;entryPerimeter=0;" edge="1" parent="1" source="5Gq7Up3fAkrMCuEhvLr--21" target="5Gq7Up3fAkrMCuEhvLr--26">
          <mxGeometry width="50" height="50" relative="1" as="geometry">
            <mxPoint x="730" y="350" as="sourcePoint" />
            <mxPoint x="780" y="300" as="targetPoint" />
          </mxGeometry>
        </mxCell>
      </root>
    </mxGraphModel>
  </diagram>
</mxfile>
